<svg xmlns="http://www.w3.org/2000/svg" xmlns:xlink="http://www.w3.org/1999/xlink" contentStyleType="text/css" data-diagram-type="DESCRIPTION" height="531px" preserveAspectRatio="none" style="width:540px;height:531px;background:#FFFFFF;" version="1.1" viewBox="0 0 540 531" width="540px" zoomAndPan="magnify"><?plantuml 1.2026.6?><defs/><g><g class="title" data-source-line="1"><text fill="#000000" font-family="sans-serif" font-size="14" font-weight="700" lengthAdjust="spacing" textLength="241.1719" x="145.9141" y="24.5332">Arquitectura - AppServiceAndTravel</text></g><!--cluster Web (UI)--><g class="cluster" data-qualified-name="Web .UI." data-source-line="3" id="ent0001"><path d="M203.5,44.6094 L261.2656,44.6094 A3.75,3.75 0 0 1 263.7656,47.1094 L270.7656,68.2188 L380.5,68.2188 A2.5,2.5 0 0 1 383,70.7188 L383,142.1094 A2.5,2.5 0 0 1 380.5,144.6094 L203.5,144.6094 A2.5,2.5 0 0 1 201,142.1094 L201,47.1094 A2.5,2.5 0 0 1 203.5,44.6094" fill="none" style="stroke:#000000;stroke-width:1.5;"/><line style="stroke:#000000;stroke-width:1.5;" x1="201" x2="270.7656" y1="68.2188" y2="68.2188"/><text fill="#000000" font-family="sans-serif" font-size="14" font-weight="700" lengthAdjust="spacing" textLength="56.7656" x="205" y="61.1426">Web (UI)</text></g><!--cluster Aplicaci?n--><g class="cluster" data-qualified-name="Aplicaci.n" data-source-line="7" id="ent0003"><path d="M110.5,168.6094 L188.1787,168.6094 A3.75,3.75 0 0 1 190.6787,171.1094 L197.6787,192.2188 L352.5,192.2188 A2.5,2.5 0 0 1 355,194.7188 L355,266.1094 A2.5,2.5 0 0 1 352.5,268.6094 L110.5,268.6094 A2.5,2.5 0 0 1 108,266.1094 L108,171.1094 A2.5,2.5 0 0 1 110.5,168.6094" fill="none" style="stroke:#000000;stroke-width:1.5;"/><line style="stroke:#000000;stroke-width:1.5;" x1="108" x2="197.6787" y1="192.2188" y2="192.2188"/><text fill="#000000" font-family="sans-serif" font-size="14" font-weight="700" lengthAdjust="spacing" textLength="76.6787" x="112" y="185.1426">Aplicaci&#65533;n</text></g><!--cluster Dominio--><g class="cluster" data-qualified-name="Dominio" data-source-line="12" id="ent0006"><path d="M24.5,416.6094 L81.4932,416.6094 A3.75,3.75 0 0 1 83.9932,419.1094 L90.9932,440.2188 L195.5,440.2188 A2.5,2.5 0 0 1 198,442.7188 L198,514.1094 A2.5,2.5 0 0 1 195.5,516.6094 L24.5,516.6094 A2.5,2.5 0 0 1 22,514.1094 L22,419.1094 A2.5,2.5 0 0 1 24.5,416.6094" fill="none" style="stroke:#000000;stroke-width:1.5;"/><line style="stroke:#000000;stroke-width:1.5;" x1="22" x2="90.9932" y1="440.2188" y2="440.2188"/><text fill="#000000" font-family="sans-serif" font-size="14" font-weight="700" lengthAdjust="spacing" textLength="55.9932" x="26" y="433.1426">Dominio</text></g><!--cluster Persistencia--><g class="cluster" data-qualified-name="Persistencia" data-source-line="16" id="ent0008"><path d="M8.5,292.6094 L91.9961,292.6094 A3.75,3.75 0 0 1 94.4961,295.1094 L101.4961,316.2188 L211.5,316.2188 A2.5,2.5 0 0 1 214,318.7188 L214,390.1094 A2.5,2.5 0 0 1 211.5,392.6094 L8.5,392.6094 A2.5,2.5 0 0 1 6,390.1094 L6,295.1094 A2.5,2.5 0 0 1 8.5,292.6094" fill="none" style="stroke:#000000;stroke-width:1.5;"/><line style="stroke:#000000;stroke-width:1.5;" x1="6" x2="101.4961" y1="316.2188" y2="316.2188"/><text fill="#000000" font-family="sans-serif" font-size="14" font-weight="700" lengthAdjust="spacing" textLength="82.4961" x="10" y="309.1426">Persistencia</text></g><!--cluster Integraciones--><g class="cluster" data-qualified-name="Integraciones" data-source-line="20" id="ent0010"><path d="M240.5,292.6094 L332.5273,292.6094 A3.75,3.75 0 0 1 335.0273,295.1094 L342.0273,316.2188 L522.5,316.2188 A2.5,2.5 0 0 1 525,318.7188 L525,390.1094 A2.5,2.5 0 0 1 522.5,392.6094 L240.5,392.6094 A2.5,2.5 0 0 1 238,390.1094 L238,295.1094 A2.5,2.5 0 0 1 240.5,292.6094" fill="none" style="stroke:#000000;stroke-width:1.5;"/><line style="stroke:#000000;stroke-width:1.5;" x1="238" x2="342.0273" y1="316.2188" y2="316.2188"/><text fill="#000000" font-family="sans-serif" font-size="14" font-weight="700" lengthAdjust="spacing" textLength="91.0273" x="242" y="309.1426">Integraciones</text></g><!--entity Controllers/Views--><g class="entity" data-qualified-name="Web .UI..Controllers.Views" data-source-line="4" id="ent0002"><rect fill="#F1F1F1" height="47.6094" rx="2.5" ry="2.5" style="stroke:#181818;stroke-width:0.5;" width="148.9238" x="217.5" y="80.6094"/><rect fill="#F1F1F1" height="10" style="stroke:#181818;stroke-width:0.5;" width="15" x="346.4238" y="85.6094"/><rect fill="#F1F1F1" height="2" style="stroke:#181818;stroke-width:0.5;" width="4" x="344.4238" y="87.6094"/><rect fill="#F1F1F1" height="2" style="stroke:#181818;stroke-width:0.5;" width="4" x="344.4238" y="91.6094"/><text fill="#000000" font-family="sans-serif" font-size="14" lengthAdjust="spacing" textLength="108.9238" x="232.5" y="115.1426">Controllers/Views</text></g><!--entity Services--><g class="entity" data-qualified-name="Aplicaci.n.Services" data-source-line="8" id="ent0004"><rect fill="#F1F1F1" height="47.6094" rx="2.5" ry="2.5" style="stroke:#181818;stroke-width:0.5;" width="93.6826" x="245" y="204.6094"/><rect fill="#F1F1F1" height="10" style="stroke:#181818;stroke-width:0.5;" width="15" x="318.6826" y="209.6094"/><rect fill="#F1F1F1" height="2" style="stroke:#181818;stroke-width:0.5;" width="4" x="316.6826" y="211.6094"/><rect fill="#F1F1F1" height="2" style="stroke:#181818;stroke-width:0.5;" width="4" x="316.6826" y="215.6094"/><text fill="#000000" font-family="sans-serif" font-size="14" lengthAdjust="spacing" textLength="53.6826" x="260" y="239.1426">Services</text></g><!--entity Utilities--><g class="entity" data-qualified-name="Aplicaci.n.Utilities" data-source-line="9" id="ent0005"><rect fill="#F1F1F1" height="47.6094" rx="2.5" ry="2.5" style="stroke:#181818;stroke-width:0.5;" width="85.1172" x="124.5" y="204.6094"/><rect fill="#F1F1F1" height="10" style="stroke:#181818;stroke-width:0.5;" width="15" x="189.6172" y="209.6094"/><rect fill="#F1F1F1" height="2" style="stroke:#181818;stroke-width:0.5;" width="4" x="187.6172" y="211.6094"/><rect fill="#F1F1F1" height="2" style="stroke:#181818;stroke-width:0.5;" width="4" x="187.6172" y="215.6094"/><text fill="#000000" font-family="sans-serif" font-size="14" lengthAdjust="spacing" textLength="45.1172" x="139.5" y="239.1426">Utilities</text></g><!--entity Models / Entities--><g class="entity" data-qualified-name="Dominio.Models . Entities" data-source-line="13" id="ent0007"><rect fill="#F1F1F1" height="47.6094" rx="2.5" ry="2.5" style="stroke:#181818;stroke-width:0.5;" width="142.71" x="38.5" y="452.6094"/><rect fill="#F1F1F1" height="10" style="stroke:#181818;stroke-width:0.5;" width="15" x="161.21" y="457.6094"/><rect fill="#F1F1F1" height="2" style="stroke:#181818;stroke-width:0.5;" width="4" x="159.21" y="459.6094"/><rect fill="#F1F1F1" height="2" style="stroke:#181818;stroke-width:0.5;" width="4" x="159.21" y="463.6094"/><text fill="#000000" font-family="sans-serif" font-size="14" lengthAdjust="spacing" textLength="102.71" x="53.5" y="487.1426">Models / Entities</text></g><!--entity ApplicationDBContext--><g class="entity" data-qualified-name="Persistencia.ApplicationDBContext" data-source-line="17" id="ent0009"><rect fill="#F1F1F1" height="47.6094" rx="2.5" ry="2.5" style="stroke:#181818;stroke-width:0.5;" width="176.1855" x="22" y="328.6094"/><rect fill="#F1F1F1" height="10" style="stroke:#181818;stroke-width:0.5;" width="15" x="178.1855" y="333.6094"/><rect fill="#F1F1F1" height="2" style="stroke:#181818;stroke-width:0.5;" width="4" x="176.1855" y="335.6094"/><rect fill="#F1F1F1" height="2" style="stroke:#181818;stroke-width:0.5;" width="4" x="176.1855" y="339.6094"/><text fill="#000000" font-family="sans-serif" font-size="14" lengthAdjust="spacing" textLength="136.1855" x="37" y="363.1426">ApplicationDBContext</text></g><!--entity Microsoft Graph--><g class="entity" data-qualified-name="Integraciones.Microsoft Graph" data-source-line="21" id="ent0011"><rect fill="#F1F1F1" height="47.6094" rx="2.5" ry="2.5" style="stroke:#181818;stroke-width:0.5;" width="139.5859" x="369" y="328.6094"/><rect fill="#F1F1F1" height="10" style="stroke:#181818;stroke-width:0.5;" width="15" x="488.5859" y="333.6094"/><rect fill="#F1F1F1" height="2" style="stroke:#181818;stroke-width:0.5;" width="4" x="486.5859" y="335.6094"/><rect fill="#F1F1F1" height="2" style="stroke:#181818;stroke-width:0.5;" width="4" x="486.5859" y="339.6094"/><text fill="#000000" font-family="sans-serif" font-size="14" lengthAdjust="spacing" textLength="99.5859" x="384" y="363.1426">Microsoft Graph</text></g><!--entity SMTP--><g class="entity" data-qualified-name="Integraciones.SMTP" data-source-line="22" id="ent0012"><rect fill="#F1F1F1" height="47.6094" rx="2.5" ry="2.5" style="stroke:#181818;stroke-width:0.5;" width="78.8896" x="254.5" y="328.6094"/><rect fill="#F1F1F1" height="10" style="stroke:#181818;stroke-width:0.5;" width="15" x="313.3896" y="333.6094"/><rect fill="#F1F1F1" height="2" style="stroke:#181818;stroke-width:0.5;" width="4" x="311.3896" y="335.6094"/><rect fill="#F1F1F1" height="2" style="stroke:#181818;stroke-width:0.5;" width="4" x="311.3896" y="339.6094"/><text fill="#000000" font-family="sans-serif" font-size="14" lengthAdjust="spacing" textLength="38.8896" x="269.5" y="363.1426">SMTP</text></g><!--link Controllers/Views to Services--><g class="link" data-entity-1="ent0002" data-entity-2="ent0004" data-link-type="dependency" data-source-line="25" id="lnk13"><path d="M292,128.8394 C292,150.5494 292,177.7794 292,199.4594" fill="none" id="Controllers/Views-to-Services" style="stroke:#181818;stroke-width:1;"/><polygon fill="#181818" points="292,204.4594,296,195.4594,292,199.4594,288,195.4594,292,204.4594" style="stroke:#181818;stroke-width:1;stroke-linejoin:miter;stroke-miterlimit:10;"/></g><!--link Services to ApplicationDBContext--><g class="link" data-entity-1="ent0004" data-entity-2="ent0009" data-link-type="dependency" data-source-line="26" id="lnk14"><path d="M260.84,252.6794 C250.2,260.4094 238.16,268.9994 227,276.6094 C200.68,294.5394 174.6327,311.2577 151.4627,325.8277" fill="none" id="Services-to-ApplicationDBContext" style="stroke:#181818;stroke-width:1;"/><polygon fill="#181818" points="147.23,328.4894,156.9782,327.0846,151.4627,325.8277,152.7195,320.3123,147.23,328.4894" style="stroke:#181818;stroke-width:1;stroke-linejoin:miter;stroke-miterlimit:10;"/></g><!--link Services to Microsoft Graph--><g class="link" data-entity-1="ent0004" data-entity-2="ent0011" data-link-type="dependency" data-source-line="27" id="lnk15"><path d="M320,252.8394 C346.15,274.5494 381.1426,303.586 407.2626,325.266" fill="none" id="Services-to-Microsoft Graph" style="stroke:#181818;stroke-width:1;"/><polygon fill="#181818" points="411.11,328.4594,406.7394,319.6334,407.2626,325.266,401.63,325.7892,411.11,328.4594" style="stroke:#181818;stroke-width:1;stroke-linejoin:miter;stroke-miterlimit:10;"/></g><!--link ApplicationDBContext to Models / Entities--><g class="link" data-entity-1="ent0009" data-entity-2="ent0007" data-link-type="dependency" data-source-line="28" id="lnk16"><path d="M110,376.8394 C110,398.5494 110,425.7794 110,447.4594" fill="none" id="ApplicationDBContext-to-Models / Entities" style="stroke:#181818;stroke-width:1;"/><polygon fill="#181818" points="110,452.4594,114,443.4594,110,447.4594,106,443.4594,110,452.4594" style="stroke:#181818;stroke-width:1;stroke-linejoin:miter;stroke-miterlimit:10;"/></g><?plantuml-src RP1DRW8n38NtSmgBLLcCk07Iy2F40Wa9A0lKHGWkMAHnwfWV2VLeLO_KApJGL52ONPoyp--zAAb3gEHzHufMTsAWX2g42SgUB5P-DHMpHrSKmTYjMICqvhY4fzcmsO1J0R3eibTXvr1Ywvdm45-AZnjr5HnPO-dxwzDd8kzEmZJCb1mfuHtMupVon9aOyGfTX1RqlTQ8nycRegAtP3AHAfnzbTZtEkU8UDJ_q33ThIKbOu_npuUiSEHNXO6OiBa4d8ocumjPqnJAidtRvthyVQbFSQzwSAtdilZnAtu0?></g></svg>