<svg xmlns="http://www.w3.org/2000/svg" xmlns:xlink="http://www.w3.org/1999/xlink" contentStyleType="text/css" data-diagram-type="CLASS" height="286px" preserveAspectRatio="none" style="width:725px;height:286px;background:#FFFFFF;" version="1.1" viewBox="0 0 725 286" width="725px" zoomAndPan="magnify"><?plantuml 1.2026.6?><defs/><g><!--class ApplicationUser--><g class="entity" data-qualified-name="ApplicationUser" data-source-line="1" id="ent0001"><rect fill="#F1F1F1" height="48" rx="2.5" ry="2.5" style="stroke:#181818;stroke-width:0.5;" width="130.0479" x="74" y="7"/><ellipse cx="89" cy="23" fill="#ADD1B2" rx="11" ry="11" style="stroke:#181818;stroke-width:1;"/><path d="M91.7656,18.875 Q91.9219,18.6563 92.1094,18.5469 Q92.2969,18.4375 92.5156,18.4375 Q92.8906,18.4375 93.125,18.7031 Q93.3594,18.9531 93.3594,19.5625 L93.3594,21.0156 Q93.3594,21.625 93.125,21.8906 Q92.8906,22.1563 92.5156,22.1563 Q92.1719,22.1563 91.9688,21.9531 Q91.7656,21.7656 91.6563,21.25 Q91.6094,20.8906 91.4219,20.7031 Q91.0938,20.3281 90.4844,20.1094 Q89.875,19.8906 89.25,19.8906 Q88.4844,19.8906 87.8438,20.2188 Q87.2188,20.5469 86.7188,21.2969 Q86.2344,22.0469 86.2344,23.0781 L86.2344,24.1719 Q86.2344,25.4063 87.125,26.2344 Q88.0156,27.0469 89.6094,27.0469 Q90.5469,27.0469 91.2031,26.7969 Q91.5938,26.6406 92.0156,26.2031 Q92.2813,25.9375 92.4219,25.8594 Q92.5781,25.7813 92.7813,25.7813 Q93.1094,25.7813 93.3594,26.0469 Q93.625,26.2969 93.625,26.6406 Q93.625,26.9844 93.2813,27.3906 Q92.7813,27.9688 91.9844,28.2969 Q90.9063,28.75 89.6094,28.75 Q88.0938,28.75 86.8906,28.125 Q85.9063,27.625 85.2188,26.5625 Q84.5313,25.4844 84.5313,24.2031 L84.5313,23.0469 Q84.5313,21.7188 85.1406,20.5781 Q85.7656,19.4219 86.8594,18.8125 Q87.9531,18.1875 89.1875,18.1875 Q89.9219,18.1875 90.5625,18.3594 Q91.2188,18.5156 91.7656,18.875 Z " fill="#000000"/><text fill="#000000" font-family="sans-serif" font-size="14" lengthAdjust="spacing" textLength="98.0479" x="103" y="28.7285">ApplicationUser</text><line style="stroke:#181818;stroke-width:0.5;" x1="75" x2="203.0479" y1="39" y2="39"/><line style="stroke:#181818;stroke-width:0.5;" x1="75" x2="203.0479" y1="47" y2="47"/></g><!--class Clientes--><g class="entity" data-qualified-name="Clientes" data-source-line="2" id="ent0002"><rect fill="#F1F1F1" height="48" rx="2.5" ry="2.5" style="stroke:#181818;stroke-width:0.5;" width="82.5791" x="337.5" y="7"/><ellipse cx="352.5" cy="23" fill="#ADD1B2" rx="11" ry="11" style="stroke:#181818;stroke-width:1;"/><path d="M355.2656,18.875 Q355.4219,18.6563 355.6094,18.5469 Q355.7969,18.4375 356.0156,18.4375 Q356.3906,18.4375 356.625,18.7031 Q356.8594,18.9531 356.8594,19.5625 L356.8594,21.0156 Q356.8594,21.625 356.625,21.8906 Q356.3906,22.1563 356.0156,22.1563 Q355.6719,22.1563 355.4688,21.9531 Q355.2656,21.7656 355.1563,21.25 Q355.1094,20.8906 354.9219,20.7031 Q354.5938,20.3281 353.9844,20.1094 Q353.375,19.8906 352.75,19.8906 Q351.9844,19.8906 351.3438,20.2188 Q350.7188,20.5469 350.2188,21.2969 Q349.7344,22.0469 349.7344,23.0781 L349.7344,24.1719 Q349.7344,25.4063 350.625,26.2344 Q351.5156,27.0469 353.1094,27.0469 Q354.0469,27.0469 354.7031,26.7969 Q355.0938,26.6406 355.5156,26.2031 Q355.7813,25.9375 355.9219,25.8594 Q356.0781,25.7813 356.2813,25.7813 Q356.6094,25.7813 356.8594,26.0469 Q357.125,26.2969 357.125,26.6406 Q357.125,26.9844 356.7813,27.3906 Q356.2813,27.9688 355.4844,28.2969 Q354.4063,28.75 353.1094,28.75 Q351.5938,28.75 350.3906,28.125 Q349.4063,27.625 348.7188,26.5625 Q348.0313,25.4844 348.0313,24.2031 L348.0313,23.0469 Q348.0313,21.7188 348.6406,20.5781 Q349.2656,19.4219 350.3594,18.8125 Q351.4531,18.1875 352.6875,18.1875 Q353.4219,18.1875 354.0625,18.3594 Q354.7188,18.5156 355.2656,18.875 Z " fill="#000000"/><text fill="#000000" font-family="sans-serif" font-size="14" lengthAdjust="spacing" textLength="50.5791" x="366.5" y="28.7285">Clientes</text><line style="stroke:#181818;stroke-width:0.5;" x1="338.5" x2="419.0791" y1="39" y2="39"/><line style="stroke:#181818;stroke-width:0.5;" x1="338.5" x2="419.0791" y1="47" y2="47"/></g><!--class Cotizaciones--><g class="entity" data-qualified-name="Cotizaciones" data-source-line="3" id="ent0003"><rect fill="#F1F1F1" height="48" rx="2.5" ry="2.5" style="stroke:#181818;stroke-width:0.5;" width="112.1514" x="323" y="115"/><ellipse cx="338" cy="131" fill="#ADD1B2" rx="11" ry="11" style="stroke:#181818;stroke-width:1;"/><path d="M340.7656,126.875 Q340.9219,126.6563 341.1094,126.5469 Q341.2969,126.4375 341.5156,126.4375 Q341.8906,126.4375 342.125,126.7031 Q342.3594,126.9531 342.3594,127.5625 L342.3594,129.0156 Q342.3594,129.625 342.125,129.8906 Q341.8906,130.1563 341.5156,130.1563 Q341.1719,130.1563 340.9688,129.9531 Q340.7656,129.7656 340.6563,129.25 Q340.6094,128.8906 340.4219,128.7031 Q340.0938,128.3281 339.4844,128.1094 Q338.875,127.8906 338.25,127.8906 Q337.4844,127.8906 336.8438,128.2188 Q336.2188,128.5469 335.7188,129.2969 Q335.2344,130.0469 335.2344,131.0781 L335.2344,132.1719 Q335.2344,133.4063 336.125,134.2344 Q337.0156,135.0469 338.6094,135.0469 Q339.5469,135.0469 340.2031,134.7969 Q340.5938,134.6406 341.0156,134.2031 Q341.2813,133.9375 341.4219,133.8594 Q341.5781,133.7813 341.7813,133.7813 Q342.1094,133.7813 342.3594,134.0469 Q342.625,134.2969 342.625,134.6406 Q342.625,134.9844 342.2813,135.3906 Q341.7813,135.9688 340.9844,136.2969 Q339.9063,136.75 338.6094,136.75 Q337.0938,136.75 335.8906,136.125 Q334.9063,135.625 334.2188,134.5625 Q333.5313,133.4844 333.5313,132.2031 L333.5313,131.0469 Q333.5313,129.7188 334.1406,128.5781 Q334.7656,127.4219 335.8594,126.8125 Q336.9531,126.1875 338.1875,126.1875 Q338.9219,126.1875 339.5625,126.3594 Q340.2188,126.5156 340.7656,126.875 Z " fill="#000000"/><text fill="#000000" font-family="sans-serif" font-size="14" lengthAdjust="spacing" textLength="80.1514" x="352" y="136.7285">Cotizaciones</text><line style="stroke:#181818;stroke-width:0.5;" x1="324" x2="434.1514" y1="147" y2="147"/><line style="stroke:#181818;stroke-width:0.5;" x1="324" x2="434.1514" y1="155" y2="155"/></g><!--class Vehiculos--><g class="entity" data-qualified-name="Vehiculos" data-source-line="4" id="ent0004"><rect fill="#F1F1F1" height="48" rx="2.5" ry="2.5" style="stroke:#181818;stroke-width:0.5;" width="92.7031" x="470.5" y="115"/><ellipse cx="485.5" cy="131" fill="#ADD1B2" rx="11" ry="11" style="stroke:#181818;stroke-width:1;"/><path d="M488.2656,126.875 Q488.4219,126.6563 488.6094,126.5469 Q488.7969,126.4375 489.0156,126.4375 Q489.3906,126.4375 489.625,126.7031 Q489.8594,126.9531 489.8594,127.5625 L489.8594,129.0156 Q489.8594,129.625 489.625,129.8906 Q489.3906,130.1563 489.0156,130.1563 Q488.6719,130.1563 488.4688,129.9531 Q488.2656,129.7656 488.1563,129.25 Q488.1094,128.8906 487.9219,128.7031 Q487.5938,128.3281 486.9844,128.1094 Q486.375,127.8906 485.75,127.8906 Q484.9844,127.8906 484.3438,128.2188 Q483.7188,128.5469 483.2188,129.2969 Q482.7344,130.0469 482.7344,131.0781 L482.7344,132.1719 Q482.7344,133.4063 483.625,134.2344 Q484.5156,135.0469 486.1094,135.0469 Q487.0469,135.0469 487.7031,134.7969 Q488.0938,134.6406 488.5156,134.2031 Q488.7813,133.9375 488.9219,133.8594 Q489.0781,133.7813 489.2813,133.7813 Q489.6094,133.7813 489.8594,134.0469 Q490.125,134.2969 490.125,134.6406 Q490.125,134.9844 489.7813,135.3906 Q489.2813,135.9688 488.4844,136.2969 Q487.4063,136.75 486.1094,136.75 Q484.5938,136.75 483.3906,136.125 Q482.4063,135.625 481.7188,134.5625 Q481.0313,133.4844 481.0313,132.2031 L481.0313,131.0469 Q481.0313,129.7188 481.6406,128.5781 Q482.2656,127.4219 483.3594,126.8125 Q484.4531,126.1875 485.6875,126.1875 Q486.4219,126.1875 487.0625,126.3594 Q487.7188,126.5156 488.2656,126.875 Z " fill="#000000"/><text fill="#000000" font-family="sans-serif" font-size="14" lengthAdjust="spacing" textLength="60.7031" x="499.5" y="136.7285">Vehiculos</text><line style="stroke:#181818;stroke-width:0.5;" x1="471.5" x2="562.2031" y1="147" y2="147"/><line style="stroke:#181818;stroke-width:0.5;" x1="471.5" x2="562.2031" y1="155" y2="155"/></g><!--class Conductores--><g class="entity" data-qualified-name="Conductores" data-source-line="5" id="ent0005"><rect fill="#F1F1F1" height="48" rx="2.5" ry="2.5" style="stroke:#181818;stroke-width:0.5;" width="111.3789" x="461.5" y="223"/><ellipse cx="476.5" cy="239" fill="#ADD1B2" rx="11" ry="11" style="stroke:#181818;stroke-width:1;"/><path d="M479.2656,234.875 Q479.4219,234.6563 479.6094,234.5469 Q479.7969,234.4375 480.0156,234.4375 Q480.3906,234.4375 480.625,234.7031 Q480.8594,234.9531 480.8594,235.5625 L480.8594,237.0156 Q480.8594,237.625 480.625,237.8906 Q480.3906,238.1563 480.0156,238.1563 Q479.6719,238.1563 479.4688,237.9531 Q479.2656,237.7656 479.1563,237.25 Q479.1094,236.8906 478.9219,236.7031 Q478.5938,236.3281 477.9844,236.1094 Q477.375,235.8906 476.75,235.8906 Q475.9844,235.8906 475.3438,236.2188 Q474.7188,236.5469 474.2188,237.2969 Q473.7344,238.0469 473.7344,239.0781 L473.7344,240.1719 Q473.7344,241.4063 474.625,242.2344 Q475.5156,243.0469 477.1094,243.0469 Q478.0469,243.0469 478.7031,242.7969 Q479.0938,242.6406 479.5156,242.2031 Q479.7813,241.9375 479.9219,241.8594 Q480.0781,241.7813 480.2813,241.7813 Q480.6094,241.7813 480.8594,242.0469 Q481.125,242.2969 481.125,242.6406 Q481.125,242.9844 480.7813,243.3906 Q480.2813,243.9688 479.4844,244.2969 Q478.4063,244.75 477.1094,244.75 Q475.5938,244.75 474.3906,244.125 Q473.4063,243.625 472.7188,242.5625 Q472.0313,241.4844 472.0313,240.2031 L472.0313,239.0469 Q472.0313,237.7188 472.6406,236.5781 Q473.2656,235.4219 474.3594,234.8125 Q475.4531,234.1875 476.6875,234.1875 Q477.4219,234.1875 478.0625,234.3594 Q478.7188,234.5156 479.2656,234.875 Z " fill="#000000"/><text fill="#000000" font-family="sans-serif" font-size="14" lengthAdjust="spacing" textLength="79.3789" x="490.5" y="244.7285">Conductores</text><line style="stroke:#181818;stroke-width:0.5;" x1="462.5" x2="571.8789" y1="255" y2="255"/><line style="stroke:#181818;stroke-width:0.5;" x1="462.5" x2="571.8789" y1="263" y2="263"/></g><!--class Proveedor--><g class="entity" data-qualified-name="Proveedor" data-source-line="6" id="ent0006"><rect fill="#F1F1F1" height="48" rx="2.5" ry="2.5" style="stroke:#181818;stroke-width:0.5;" width="96.5928" x="468.5" y="7"/><ellipse cx="483.5" cy="23" fill="#ADD1B2" rx="11" ry="11" style="stroke:#181818;stroke-width:1;"/><path d="M486.2656,18.875 Q486.4219,18.6563 486.6094,18.5469 Q486.7969,18.4375 487.0156,18.4375 Q487.3906,18.4375 487.625,18.7031 Q487.8594,18.9531 487.8594,19.5625 L487.8594,21.0156 Q487.8594,21.625 487.625,21.8906 Q487.3906,22.1563 487.0156,22.1563 Q486.6719,22.1563 486.4688,21.9531 Q486.2656,21.7656 486.1563,21.25 Q486.1094,20.8906 485.9219,20.7031 Q485.5938,20.3281 484.9844,20.1094 Q484.375,19.8906 483.75,19.8906 Q482.9844,19.8906 482.3438,20.2188 Q481.7188,20.5469 481.2188,21.2969 Q480.7344,22.0469 480.7344,23.0781 L480.7344,24.1719 Q480.7344,25.4063 481.625,26.2344 Q482.5156,27.0469 484.1094,27.0469 Q485.0469,27.0469 485.7031,26.7969 Q486.0938,26.6406 486.5156,26.2031 Q486.7813,25.9375 486.9219,25.8594 Q487.0781,25.7813 487.2813,25.7813 Q487.6094,25.7813 487.8594,26.0469 Q488.125,26.2969 488.125,26.6406 Q488.125,26.9844 487.7813,27.3906 Q487.2813,27.9688 486.4844,28.2969 Q485.4063,28.75 484.1094,28.75 Q482.5938,28.75 481.3906,28.125 Q480.4063,27.625 479.7188,26.5625 Q479.0313,25.4844 479.0313,24.2031 L479.0313,23.0469 Q479.0313,21.7188 479.6406,20.5781 Q480.2656,19.4219 481.3594,18.8125 Q482.4531,18.1875 483.6875,18.1875 Q484.4219,18.1875 485.0625,18.3594 Q485.7188,18.5156 486.2656,18.875 Z " fill="#000000"/><text fill="#000000" font-family="sans-serif" font-size="14" lengthAdjust="spacing" textLength="64.5928" x="497.5" y="28.7285">Proveedor</text><line style="stroke:#181818;stroke-width:0.5;" x1="469.5" x2="564.0928" y1="39" y2="39"/><line style="stroke:#181818;stroke-width:0.5;" x1="469.5" x2="564.0928" y1="47" y2="47"/></g><!--class TypeService--><g class="entity" data-qualified-name="TypeService" data-source-line="7" id="ent0007"><rect fill="#F1F1F1" height="48" rx="2.5" ry="2.5" style="stroke:#181818;stroke-width:0.5;" width="109.8066" x="601" y="7"/><ellipse cx="616" cy="23" fill="#ADD1B2" rx="11" ry="11" style="stroke:#181818;stroke-width:1;"/><path d="M618.7656,18.875 Q618.9219,18.6563 619.1094,18.5469 Q619.2969,18.4375 619.5156,18.4375 Q619.8906,18.4375 620.125,18.7031 Q620.3594,18.9531 620.3594,19.5625 L620.3594,21.0156 Q620.3594,21.625 620.125,21.8906 Q619.8906,22.1563 619.5156,22.1563 Q619.1719,22.1563 618.9688,21.9531 Q618.7656,21.7656 618.6563,21.25 Q618.6094,20.8906 618.4219,20.7031 Q618.0938,20.3281 617.4844,20.1094 Q616.875,19.8906 616.25,19.8906 Q615.4844,19.8906 614.8438,20.2188 Q614.2188,20.5469 613.7188,21.2969 Q613.2344,22.0469 613.2344,23.0781 L613.2344,24.1719 Q613.2344,25.4063 614.125,26.2344 Q615.0156,27.0469 616.6094,27.0469 Q617.5469,27.0469 618.2031,26.7969 Q618.5938,26.6406 619.0156,26.2031 Q619.2813,25.9375 619.4219,25.8594 Q619.5781,25.7813 619.7813,25.7813 Q620.1094,25.7813 620.3594,26.0469 Q620.625,26.2969 620.625,26.6406 Q620.625,26.9844 620.2813,27.3906 Q619.7813,27.9688 618.9844,28.2969 Q617.9063,28.75 616.6094,28.75 Q615.0938,28.75 613.8906,28.125 Q612.9063,27.625 612.2188,26.5625 Q611.5313,25.4844 611.5313,24.2031 L611.5313,23.0469 Q611.5313,21.7188 612.1406,20.5781 Q612.7656,19.4219 613.8594,18.8125 Q614.9531,18.1875 616.1875,18.1875 Q616.9219,18.1875 617.5625,18.3594 Q618.2188,18.5156 618.7656,18.875 Z " fill="#000000"/><text fill="#000000" font-family="sans-serif" font-size="14" lengthAdjust="spacing" textLength="77.8066" x="630" y="28.7285">TypeService</text><line style="stroke:#181818;stroke-width:0.5;" x1="602" x2="709.8066" y1="39" y2="39"/><line style="stroke:#181818;stroke-width:0.5;" x1="602" x2="709.8066" y1="47" y2="47"/></g><!--class LogSistema--><g class="entity" data-qualified-name="LogSistema" data-source-line="8" id="ent0008"><rect fill="#F1F1F1" height="48" rx="2.5" ry="2.5" style="stroke:#181818;stroke-width:0.5;" width="105.9307" x="7" y="115"/><ellipse cx="22" cy="131" fill="#ADD1B2" rx="11" ry="11" style="stroke:#181818;stroke-width:1;"/><path d="M24.7656,126.875 Q24.9219,126.6563 25.1094,126.5469 Q25.2969,126.4375 25.5156,126.4375 Q25.8906,126.4375 26.125,126.7031 Q26.3594,126.9531 26.3594,127.5625 L26.3594,129.0156 Q26.3594,129.625 26.125,129.8906 Q25.8906,130.1563 25.5156,130.1563 Q25.1719,130.1563 24.9688,129.9531 Q24.7656,129.7656 24.6563,129.25 Q24.6094,128.8906 24.4219,128.7031 Q24.0938,128.3281 23.4844,128.1094 Q22.875,127.8906 22.25,127.8906 Q21.4844,127.8906 20.8438,128.2188 Q20.2188,128.5469 19.7188,129.2969 Q19.2344,130.0469 19.2344,131.0781 L19.2344,132.1719 Q19.2344,133.4063 20.125,134.2344 Q21.0156,135.0469 22.6094,135.0469 Q23.5469,135.0469 24.2031,134.7969 Q24.5938,134.6406 25.0156,134.2031 Q25.2813,133.9375 25.4219,133.8594 Q25.5781,133.7813 25.7813,133.7813 Q26.1094,133.7813 26.3594,134.0469 Q26.625,134.2969 26.625,134.6406 Q26.625,134.9844 26.2813,135.3906 Q25.7813,135.9688 24.9844,136.2969 Q23.9063,136.75 22.6094,136.75 Q21.0938,136.75 19.8906,136.125 Q18.9063,135.625 18.2188,134.5625 Q17.5313,133.4844 17.5313,132.2031 L17.5313,131.0469 Q17.5313,129.7188 18.1406,128.5781 Q18.7656,127.4219 19.8594,126.8125 Q20.9531,126.1875 22.1875,126.1875 Q22.9219,126.1875 23.5625,126.3594 Q24.2188,126.5156 24.7656,126.875 Z " fill="#000000"/><text fill="#000000" font-family="sans-serif" font-size="14" lengthAdjust="spacing" textLength="73.9307" x="36" y="136.7285">LogSistema</text><line style="stroke:#181818;stroke-width:0.5;" x1="8" x2="111.9307" y1="147" y2="147"/><line style="stroke:#181818;stroke-width:0.5;" x1="8" x2="111.9307" y1="155" y2="155"/></g><!--class ActividadSistema--><g class="entity" data-qualified-name="ActividadSistema" data-source-line="9" id="ent0009"><rect fill="#F1F1F1" height="48" rx="2.5" ry="2.5" style="stroke:#181818;stroke-width:0.5;" width="139.3789" x="148.5" y="115"/><ellipse cx="163.5" cy="131" fill="#ADD1B2" rx="11" ry="11" style="stroke:#181818;stroke-width:1;"/><path d="M166.2656,126.875 Q166.4219,126.6563 166.6094,126.5469 Q166.7969,126.4375 167.0156,126.4375 Q167.3906,126.4375 167.625,126.7031 Q167.8594,126.9531 167.8594,127.5625 L167.8594,129.0156 Q167.8594,129.625 167.625,129.8906 Q167.3906,130.1563 167.0156,130.1563 Q166.6719,130.1563 166.4688,129.9531 Q166.2656,129.7656 166.1563,129.25 Q166.1094,128.8906 165.9219,128.7031 Q165.5938,128.3281 164.9844,128.1094 Q164.375,127.8906 163.75,127.8906 Q162.9844,127.8906 162.3438,128.2188 Q161.7188,128.5469 161.2188,129.2969 Q160.7344,130.0469 160.7344,131.0781 L160.7344,132.1719 Q160.7344,133.4063 161.625,134.2344 Q162.5156,135.0469 164.1094,135.0469 Q165.0469,135.0469 165.7031,134.7969 Q166.0938,134.6406 166.5156,134.2031 Q166.7813,133.9375 166.9219,133.8594 Q167.0781,133.7813 167.2813,133.7813 Q167.6094,133.7813 167.8594,134.0469 Q168.125,134.2969 168.125,134.6406 Q168.125,134.9844 167.7813,135.3906 Q167.2813,135.9688 166.4844,136.2969 Q165.4063,136.75 164.1094,136.75 Q162.5938,136.75 161.3906,136.125 Q160.4063,135.625 159.7188,134.5625 Q159.0313,133.4844 159.0313,132.2031 L159.0313,131.0469 Q159.0313,129.7188 159.6406,128.5781 Q160.2656,127.4219 161.3594,126.8125 Q162.4531,126.1875 163.6875,126.1875 Q164.4219,126.1875 165.0625,126.3594 Q165.7188,126.5156 166.2656,126.875 Z " fill="#000000"/><text fill="#000000" font-family="sans-serif" font-size="14" lengthAdjust="spacing" textLength="107.3789" x="177.5" y="136.7285">ActividadSistema</text><line style="stroke:#181818;stroke-width:0.5;" x1="149.5" x2="286.8789" y1="147" y2="147"/><line style="stroke:#181818;stroke-width:0.5;" x1="149.5" x2="286.8789" y1="155" y2="155"/></g><!--link Clientes to Cotizaciones--><g class="link" data-entity-1="ent0002" data-entity-2="ent0003" data-link-type="association" data-source-line="11" id="lnk10"><path codeLine="11" d="M379,55 C379,72.66 379,96.94 379,114.68" fill="none" id="Clientes-Cotizaciones" style="stroke:#181818;stroke-width:1;"/><text fill="#000000" font-family="sans-serif" font-size="13" lengthAdjust="spacing" textLength="7.23" x="371.2262" y="76.338">1</text><text fill="#000000" font-family="sans-serif" font-size="13" lengthAdjust="spacing" textLength="5.0591" x="373.3794" y="104.34">*</text></g><!--link Proveedor to Vehiculos--><g class="link" data-entity-1="ent0006" data-entity-2="ent0004" data-link-type="association" data-source-line="12" id="lnk11"><path codeLine="12" d="M517,55 C517,72.66 517,96.94 517,114.68" fill="none" id="Proveedor-Vehiculos" style="stroke:#181818;stroke-width:1;"/><text fill="#000000" font-family="sans-serif" font-size="13" lengthAdjust="spacing" textLength="7.23" x="509.2245" y="76.338">1</text><text fill="#000000" font-family="sans-serif" font-size="13" lengthAdjust="spacing" textLength="5.0591" x="511.434" y="104.34">*</text></g><!--link Vehiculos to Conductores--><g class="link" data-entity-1="ent0004" data-entity-2="ent0005" data-link-type="association" data-source-line="13" id="lnk12"><path codeLine="13" d="M517,163 C517,180.66 517,204.94 517,222.68" fill="none" id="Vehiculos-Conductores" style="stroke:#181818;stroke-width:1;"/><text fill="#000000" font-family="sans-serif" font-size="13" lengthAdjust="spacing" textLength="7.23" x="509.2111" y="184.338">1</text><text fill="#000000" font-family="sans-serif" font-size="13" lengthAdjust="spacing" textLength="5.0591" x="511.3516" y="212.34">*</text></g><!--link ApplicationUser to LogSistema--><g class="link" data-entity-1="ent0001" data-entity-2="ent0008" data-link-type="association" data-source-line="14" id="lnk13"><path codeLine="14" d="M121.86,55 C108.7,72.66 90.6,96.94 77.38,114.68" fill="none" id="ApplicationUser-LogSistema" style="stroke:#181818;stroke-width:1;"/><text fill="#000000" font-family="sans-serif" font-size="13" lengthAdjust="spacing" textLength="7.23" x="109.8512" y="76.338">1</text><text fill="#000000" font-family="sans-serif" font-size="13" lengthAdjust="spacing" textLength="5.0591" x="76.0227" y="104.34">*</text></g><!--link ApplicationUser to ActividadSistema--><g class="link" data-entity-1="ent0001" data-entity-2="ent0009" data-link-type="association" data-source-line="15" id="lnk14"><path codeLine="15" d="M156.14,55 C169.3,72.66 187.4,96.94 200.62,114.68" fill="none" id="ApplicationUser-ActividadSistema" style="stroke:#181818;stroke-width:1;"/><text fill="#000000" font-family="sans-serif" font-size="13" lengthAdjust="spacing" textLength="7.23" x="152.4869" y="76.338">1</text><text fill="#000000" font-family="sans-serif" font-size="13" lengthAdjust="spacing" textLength="5.0591" x="190.7353" y="104.34">*</text></g><?plantuml-src VO-z2i8m483tFaN8A7Jm4OghWr1r3vT33s8k9DT2VNf5cfzsSBjyVDnz0MTIKaC8Zi08iRybZ1tywCaHUi6KdopqDl1r2hhZas1oN1Ll9n2EnRX4dX4jvvtN9U28SIR0bPpvCL8IV9aL320qapKsuow7A7tKgk-LFkXjJRdI6ZMkJDi5jNNt_rPhylvO--OF?></g></svg>