<svg xmlns="http://www.w3.org/2000/svg" xmlns:xlink="http://www.w3.org/1999/xlink" contentStyleType="text/css" data-diagram-type="CLASS" height="286px" preserveAspectRatio="none" style="width:658px;height:286px;background:#FFFFFF;" version="1.1" viewBox="0 0 658 286" width="658px" zoomAndPan="magnify"><?plantuml 1.2026.6?><defs/><g><!--class Clientes--><g class="entity" data-qualified-name="Clientes" data-source-line="2" id="ent0001"><rect fill="#F1F1F1" height="48" rx="2.5" ry="2.5" style="stroke:#181818;stroke-width:0.5;" width="82.5791" x="21.5" y="7"/><ellipse cx="36.5" cy="23" fill="#ADD1B2" rx="11" ry="11" style="stroke:#181818;stroke-width:1;"/><path d="M35.3594,23.7969 L35.3594,26.2969 L39.6875,26.2969 L39.6875,25.375 Q39.6875,24.7656 39.9219,24.5 Q40.1719,24.2344 40.5469,24.2344 Q40.9219,24.2344 41.1563,24.5 Q41.3906,24.7656 41.3906,25.375 L41.3906,28 L33.3906,28 Q32.7656,28 32.5,27.7656 Q32.25,27.5313 32.25,27.1406 Q32.25,26.7656 32.5156,26.5313 Q32.7813,26.2969 33.3906,26.2969 L33.6563,26.2969 L33.6563,19.6406 L33.3906,19.6406 Q32.7656,19.6406 32.5,19.4063 Q32.25,19.1719 32.25,18.7813 Q32.25,18.4063 32.5,18.1719 Q32.7656,17.9375 33.3906,17.9375 L41.0156,17.9375 L41.0156,20.5313 Q41.0156,21.1406 40.7813,21.4063 Q40.5625,21.6563 40.1719,21.6563 Q39.7969,21.6563 39.5625,21.4063 Q39.3281,21.1406 39.3281,20.5313 L39.3281,19.6406 L35.3594,19.6406 L35.3594,22.0938 L36.8438,22.0938 Q36.8438,21.4375 36.9688,21.25 Q37.2344,20.8438 37.7031,20.8438 Q38.0781,20.8438 38.3125,21.1094 Q38.5469,21.3594 38.5469,21.9688 L38.5469,23.9375 Q38.5469,24.4844 38.4219,24.6719 Q38.1563,25.0625 37.7031,25.0625 Q37.2344,25.0625 36.9688,24.6563 Q36.8438,24.4688 36.8438,23.7969 L35.3594,23.7969 Z " fill="#000000"/><text fill="#000000" font-family="sans-serif" font-size="14" lengthAdjust="spacing" textLength="50.5791" x="50.5" y="28.7285">Clientes</text><line style="stroke:#181818;stroke-width:0.5;" x1="22.5" x2="103.0791" y1="39" y2="39"/><line style="stroke:#181818;stroke-width:0.5;" x1="22.5" x2="103.0791" y1="47" y2="47"/></g><!--class Cotizaciones--><g class="entity" data-qualified-name="Cotizaciones" data-source-line="3" id="ent0002"><rect fill="#F1F1F1" height="48" rx="2.5" ry="2.5" style="stroke:#181818;stroke-width:0.5;" width="112.1514" x="7" y="115"/><ellipse cx="22" cy="131" fill="#ADD1B2" rx="11" ry="11" style="stroke:#181818;stroke-width:1;"/><path d="M20.8594,131.7969 L20.8594,134.2969 L25.1875,134.2969 L25.1875,133.375 Q25.1875,132.7656 25.4219,132.5 Q25.6719,132.2344 26.0469,132.2344 Q26.4219,132.2344 26.6563,132.5 Q26.8906,132.7656 26.8906,133.375 L26.8906,136 L18.8906,136 Q18.2656,136 18,135.7656 Q17.75,135.5313 17.75,135.1406 Q17.75,134.7656 18.0156,134.5313 Q18.2813,134.2969 18.8906,134.2969 L19.1563,134.2969 L19.1563,127.6406 L18.8906,127.6406 Q18.2656,127.6406 18,127.4063 Q17.75,127.1719 17.75,126.7813 Q17.75,126.4063 18,126.1719 Q18.2656,125.9375 18.8906,125.9375 L26.5156,125.9375 L26.5156,128.5313 Q26.5156,129.1406 26.2813,129.4063 Q26.0625,129.6563 25.6719,129.6563 Q25.2969,129.6563 25.0625,129.4063 Q24.8281,129.1406 24.8281,128.5313 L24.8281,127.6406 L20.8594,127.6406 L20.8594,130.0938 L22.3438,130.0938 Q22.3438,129.4375 22.4688,129.25 Q22.7344,128.8438 23.2031,128.8438 Q23.5781,128.8438 23.8125,129.1094 Q24.0469,129.3594 24.0469,129.9688 L24.0469,131.9375 Q24.0469,132.4844 23.9219,132.6719 Q23.6563,133.0625 23.2031,133.0625 Q22.7344,133.0625 22.4688,132.6563 Q22.3438,132.4688 22.3438,131.7969 L20.8594,131.7969 Z " fill="#000000"/><text fill="#000000" font-family="sans-serif" font-size="14" lengthAdjust="spacing" textLength="80.1514" x="36" y="136.7285">Cotizaciones</text><line style="stroke:#181818;stroke-width:0.5;" x1="8" x2="118.1514" y1="147" y2="147"/><line style="stroke:#181818;stroke-width:0.5;" x1="8" x2="118.1514" y1="155" y2="155"/></g><!--class Vehiculos--><g class="entity" data-qualified-name="Vehiculos" data-source-line="4" id="ent0003"><rect fill="#F1F1F1" height="48" rx="2.5" ry="2.5" style="stroke:#181818;stroke-width:0.5;" width="92.7031" x="154.5" y="115"/><ellipse cx="169.5" cy="131" fill="#ADD1B2" rx="11" ry="11" style="stroke:#181818;stroke-width:1;"/><path d="M168.3594,131.7969 L168.3594,134.2969 L172.6875,134.2969 L172.6875,133.375 Q172.6875,132.7656 172.9219,132.5 Q173.1719,132.2344 173.5469,132.2344 Q173.9219,132.2344 174.1563,132.5 Q174.3906,132.7656 174.3906,133.375 L174.3906,136 L166.3906,136 Q165.7656,136 165.5,135.7656 Q165.25,135.5313 165.25,135.1406 Q165.25,134.7656 165.5156,134.5313 Q165.7813,134.2969 166.3906,134.2969 L166.6563,134.2969 L166.6563,127.6406 L166.3906,127.6406 Q165.7656,127.6406 165.5,127.4063 Q165.25,127.1719 165.25,126.7813 Q165.25,126.4063 165.5,126.1719 Q165.7656,125.9375 166.3906,125.9375 L174.0156,125.9375 L174.0156,128.5313 Q174.0156,129.1406 173.7813,129.4063 Q173.5625,129.6563 173.1719,129.6563 Q172.7969,129.6563 172.5625,129.4063 Q172.3281,129.1406 172.3281,128.5313 L172.3281,127.6406 L168.3594,127.6406 L168.3594,130.0938 L169.8438,130.0938 Q169.8438,129.4375 169.9688,129.25 Q170.2344,128.8438 170.7031,128.8438 Q171.0781,128.8438 171.3125,129.1094 Q171.5469,129.3594 171.5469,129.9688 L171.5469,131.9375 Q171.5469,132.4844 171.4219,132.6719 Q171.1563,133.0625 170.7031,133.0625 Q170.2344,133.0625 169.9688,132.6563 Q169.8438,132.4688 169.8438,131.7969 L168.3594,131.7969 Z " fill="#000000"/><text fill="#000000" font-family="sans-serif" font-size="14" lengthAdjust="spacing" textLength="60.7031" x="183.5" y="136.7285">Vehiculos</text><line style="stroke:#181818;stroke-width:0.5;" x1="155.5" x2="246.2031" y1="147" y2="147"/><line style="stroke:#181818;stroke-width:0.5;" x1="155.5" x2="246.2031" y1="155" y2="155"/></g><!--class Conductores--><g class="entity" data-qualified-name="Conductores" data-source-line="5" id="ent0004"><rect fill="#F1F1F1" height="48" rx="2.5" ry="2.5" style="stroke:#181818;stroke-width:0.5;" width="111.3789" x="145.5" y="223"/><ellipse cx="160.5" cy="239" fill="#ADD1B2" rx="11" ry="11" style="stroke:#181818;stroke-width:1;"/><path d="M159.3594,239.7969 L159.3594,242.2969 L163.6875,242.2969 L163.6875,241.375 Q163.6875,240.7656 163.9219,240.5 Q164.1719,240.2344 164.5469,240.2344 Q164.9219,240.2344 165.1563,240.5 Q165.3906,240.7656 165.3906,241.375 L165.3906,244 L157.3906,244 Q156.7656,244 156.5,243.7656 Q156.25,243.5313 156.25,243.1406 Q156.25,242.7656 156.5156,242.5313 Q156.7813,242.2969 157.3906,242.2969 L157.6563,242.2969 L157.6563,235.6406 L157.3906,235.6406 Q156.7656,235.6406 156.5,235.4063 Q156.25,235.1719 156.25,234.7813 Q156.25,234.4063 156.5,234.1719 Q156.7656,233.9375 157.3906,233.9375 L165.0156,233.9375 L165.0156,236.5313 Q165.0156,237.1406 164.7813,237.4063 Q164.5625,237.6563 164.1719,237.6563 Q163.7969,237.6563 163.5625,237.4063 Q163.3281,237.1406 163.3281,236.5313 L163.3281,235.6406 L159.3594,235.6406 L159.3594,238.0938 L160.8438,238.0938 Q160.8438,237.4375 160.9688,237.25 Q161.2344,236.8438 161.7031,236.8438 Q162.0781,236.8438 162.3125,237.1094 Q162.5469,237.3594 162.5469,237.9688 L162.5469,239.9375 Q162.5469,240.4844 162.4219,240.6719 Q162.1563,241.0625 161.7031,241.0625 Q161.2344,241.0625 160.9688,240.6563 Q160.8438,240.4688 160.8438,239.7969 L159.3594,239.7969 Z " fill="#000000"/><text fill="#000000" font-family="sans-serif" font-size="14" lengthAdjust="spacing" textLength="79.3789" x="174.5" y="244.7285">Conductores</text><line style="stroke:#181818;stroke-width:0.5;" x1="146.5" x2="255.8789" y1="255" y2="255"/><line style="stroke:#181818;stroke-width:0.5;" x1="146.5" x2="255.8789" y1="263" y2="263"/></g><!--class Proveedor--><g class="entity" data-qualified-name="Proveedor" data-source-line="6" id="ent0005"><rect fill="#F1F1F1" height="48" rx="2.5" ry="2.5" style="stroke:#181818;stroke-width:0.5;" width="96.5928" x="152.5" y="7"/><ellipse cx="167.5" cy="23" fill="#ADD1B2" rx="11" ry="11" style="stroke:#181818;stroke-width:1;"/><path d="M166.3594,23.7969 L166.3594,26.2969 L170.6875,26.2969 L170.6875,25.375 Q170.6875,24.7656 170.9219,24.5 Q171.1719,24.2344 171.5469,24.2344 Q171.9219,24.2344 172.1563,24.5 Q172.3906,24.7656 172.3906,25.375 L172.3906,28 L164.3906,28 Q163.7656,28 163.5,27.7656 Q163.25,27.5313 163.25,27.1406 Q163.25,26.7656 163.5156,26.5313 Q163.7813,26.2969 164.3906,26.2969 L164.6563,26.2969 L164.6563,19.6406 L164.3906,19.6406 Q163.7656,19.6406 163.5,19.4063 Q163.25,19.1719 163.25,18.7813 Q163.25,18.4063 163.5,18.1719 Q163.7656,17.9375 164.3906,17.9375 L172.0156,17.9375 L172.0156,20.5313 Q172.0156,21.1406 171.7813,21.4063 Q171.5625,21.6563 171.1719,21.6563 Q170.7969,21.6563 170.5625,21.4063 Q170.3281,21.1406 170.3281,20.5313 L170.3281,19.6406 L166.3594,19.6406 L166.3594,22.0938 L167.8438,22.0938 Q167.8438,21.4375 167.9688,21.25 Q168.2344,20.8438 168.7031,20.8438 Q169.0781,20.8438 169.3125,21.1094 Q169.5469,21.3594 169.5469,21.9688 L169.5469,23.9375 Q169.5469,24.4844 169.4219,24.6719 Q169.1563,25.0625 168.7031,25.0625 Q168.2344,25.0625 167.9688,24.6563 Q167.8438,24.4688 167.8438,23.7969 L166.3594,23.7969 Z " fill="#000000"/><text fill="#000000" font-family="sans-serif" font-size="14" lengthAdjust="spacing" textLength="64.5928" x="181.5" y="28.7285">Proveedor</text><line style="stroke:#181818;stroke-width:0.5;" x1="153.5" x2="248.0928" y1="39" y2="39"/><line style="stroke:#181818;stroke-width:0.5;" x1="153.5" x2="248.0928" y1="47" y2="47"/></g><!--class TypeService--><g class="entity" data-qualified-name="TypeService" data-source-line="7" id="ent0006"><rect fill="#F1F1F1" height="48" rx="2.5" ry="2.5" style="stroke:#181818;stroke-width:0.5;" width="109.8066" x="285" y="7"/><ellipse cx="300" cy="23" fill="#ADD1B2" rx="11" ry="11" style="stroke:#181818;stroke-width:1;"/><path d="M298.8594,23.7969 L298.8594,26.2969 L303.1875,26.2969 L303.1875,25.375 Q303.1875,24.7656 303.4219,24.5 Q303.6719,24.2344 304.0469,24.2344 Q304.4219,24.2344 304.6563,24.5 Q304.8906,24.7656 304.8906,25.375 L304.8906,28 L296.8906,28 Q296.2656,28 296,27.7656 Q295.75,27.5313 295.75,27.1406 Q295.75,26.7656 296.0156,26.5313 Q296.2813,26.2969 296.8906,26.2969 L297.1563,26.2969 L297.1563,19.6406 L296.8906,19.6406 Q296.2656,19.6406 296,19.4063 Q295.75,19.1719 295.75,18.7813 Q295.75,18.4063 296,18.1719 Q296.2656,17.9375 296.8906,17.9375 L304.5156,17.9375 L304.5156,20.5313 Q304.5156,21.1406 304.2813,21.4063 Q304.0625,21.6563 303.6719,21.6563 Q303.2969,21.6563 303.0625,21.4063 Q302.8281,21.1406 302.8281,20.5313 L302.8281,19.6406 L298.8594,19.6406 L298.8594,22.0938 L300.3438,22.0938 Q300.3438,21.4375 300.4688,21.25 Q300.7344,20.8438 301.2031,20.8438 Q301.5781,20.8438 301.8125,21.1094 Q302.0469,21.3594 302.0469,21.9688 L302.0469,23.9375 Q302.0469,24.4844 301.9219,24.6719 Q301.6563,25.0625 301.2031,25.0625 Q300.7344,25.0625 300.4688,24.6563 Q300.3438,24.4688 300.3438,23.7969 L298.8594,23.7969 Z " fill="#000000"/><text fill="#000000" font-family="sans-serif" font-size="14" lengthAdjust="spacing" textLength="77.8066" x="314" y="28.7285">TypeService</text><line style="stroke:#181818;stroke-width:0.5;" x1="286" x2="393.8066" y1="39" y2="39"/><line style="stroke:#181818;stroke-width:0.5;" x1="286" x2="393.8066" y1="47" y2="47"/></g><!--class ApplicationUser--><g class="entity" data-qualified-name="ApplicationUser" data-source-line="8" id="ent0007"><rect fill="#F1F1F1" height="48" rx="2.5" ry="2.5" style="stroke:#181818;stroke-width:0.5;" width="130.0479" x="430" y="7"/><ellipse cx="445" cy="23" fill="#ADD1B2" rx="11" ry="11" style="stroke:#181818;stroke-width:1;"/><path d="M443.8594,23.7969 L443.8594,26.2969 L448.1875,26.2969 L448.1875,25.375 Q448.1875,24.7656 448.4219,24.5 Q448.6719,24.2344 449.0469,24.2344 Q449.4219,24.2344 449.6563,24.5 Q449.8906,24.7656 449.8906,25.375 L449.8906,28 L441.8906,28 Q441.2656,28 441,27.7656 Q440.75,27.5313 440.75,27.1406 Q440.75,26.7656 441.0156,26.5313 Q441.2813,26.2969 441.8906,26.2969 L442.1563,26.2969 L442.1563,19.6406 L441.8906,19.6406 Q441.2656,19.6406 441,19.4063 Q440.75,19.1719 440.75,18.7813 Q440.75,18.4063 441,18.1719 Q441.2656,17.9375 441.8906,17.9375 L449.5156,17.9375 L449.5156,20.5313 Q449.5156,21.1406 449.2813,21.4063 Q449.0625,21.6563 448.6719,21.6563 Q448.2969,21.6563 448.0625,21.4063 Q447.8281,21.1406 447.8281,20.5313 L447.8281,19.6406 L443.8594,19.6406 L443.8594,22.0938 L445.3438,22.0938 Q445.3438,21.4375 445.4688,21.25 Q445.7344,20.8438 446.2031,20.8438 Q446.5781,20.8438 446.8125,21.1094 Q447.0469,21.3594 447.0469,21.9688 L447.0469,23.9375 Q447.0469,24.4844 446.9219,24.6719 Q446.6563,25.0625 446.2031,25.0625 Q445.7344,25.0625 445.4688,24.6563 Q445.3438,24.4688 445.3438,23.7969 L443.8594,23.7969 Z " fill="#000000"/><text fill="#000000" font-family="sans-serif" font-size="14" lengthAdjust="spacing" textLength="98.0479" x="459" y="28.7285">ApplicationUser</text><line style="stroke:#181818;stroke-width:0.5;" x1="431" x2="559.0479" y1="39" y2="39"/><line style="stroke:#181818;stroke-width:0.5;" x1="431" x2="559.0479" y1="47" y2="47"/></g><!--class LogSistema--><g class="entity" data-qualified-name="LogSistema" data-source-line="9" id="ent0008"><rect fill="#F1F1F1" height="48" rx="2.5" ry="2.5" style="stroke:#181818;stroke-width:0.5;" width="105.9307" x="363" y="115"/><ellipse cx="378" cy="131" fill="#ADD1B2" rx="11" ry="11" style="stroke:#181818;stroke-width:1;"/><path d="M376.8594,131.7969 L376.8594,134.2969 L381.1875,134.2969 L381.1875,133.375 Q381.1875,132.7656 381.4219,132.5 Q381.6719,132.2344 382.0469,132.2344 Q382.4219,132.2344 382.6563,132.5 Q382.8906,132.7656 382.8906,133.375 L382.8906,136 L374.8906,136 Q374.2656,136 374,135.7656 Q373.75,135.5313 373.75,135.1406 Q373.75,134.7656 374.0156,134.5313 Q374.2813,134.2969 374.8906,134.2969 L375.1563,134.2969 L375.1563,127.6406 L374.8906,127.6406 Q374.2656,127.6406 374,127.4063 Q373.75,127.1719 373.75,126.7813 Q373.75,126.4063 374,126.1719 Q374.2656,125.9375 374.8906,125.9375 L382.5156,125.9375 L382.5156,128.5313 Q382.5156,129.1406 382.2813,129.4063 Q382.0625,129.6563 381.6719,129.6563 Q381.2969,129.6563 381.0625,129.4063 Q380.8281,129.1406 380.8281,128.5313 L380.8281,127.6406 L376.8594,127.6406 L376.8594,130.0938 L378.3438,130.0938 Q378.3438,129.4375 378.4688,129.25 Q378.7344,128.8438 379.2031,128.8438 Q379.5781,128.8438 379.8125,129.1094 Q380.0469,129.3594 380.0469,129.9688 L380.0469,131.9375 Q380.0469,132.4844 379.9219,132.6719 Q379.6563,133.0625 379.2031,133.0625 Q378.7344,133.0625 378.4688,132.6563 Q378.3438,132.4688 378.3438,131.7969 L376.8594,131.7969 Z " fill="#000000"/><text fill="#000000" font-family="sans-serif" font-size="14" lengthAdjust="spacing" textLength="73.9307" x="392" y="136.7285">LogSistema</text><line style="stroke:#181818;stroke-width:0.5;" x1="364" x2="467.9307" y1="147" y2="147"/><line style="stroke:#181818;stroke-width:0.5;" x1="364" x2="467.9307" y1="155" y2="155"/></g><!--class ActividadSistema--><g class="entity" data-qualified-name="ActividadSistema" data-source-line="10" id="ent0009"><rect fill="#F1F1F1" height="48" rx="2.5" ry="2.5" style="stroke:#181818;stroke-width:0.5;" width="139.3789" x="504.5" y="115"/><ellipse cx="519.5" cy="131" fill="#ADD1B2" rx="11" ry="11" style="stroke:#181818;stroke-width:1;"/><path d="M518.3594,131.7969 L518.3594,134.2969 L522.6875,134.2969 L522.6875,133.375 Q522.6875,132.7656 522.9219,132.5 Q523.1719,132.2344 523.5469,132.2344 Q523.9219,132.2344 524.1563,132.5 Q524.3906,132.7656 524.3906,133.375 L524.3906,136 L516.3906,136 Q515.7656,136 515.5,135.7656 Q515.25,135.5313 515.25,135.1406 Q515.25,134.7656 515.5156,134.5313 Q515.7813,134.2969 516.3906,134.2969 L516.6563,134.2969 L516.6563,127.6406 L516.3906,127.6406 Q515.7656,127.6406 515.5,127.4063 Q515.25,127.1719 515.25,126.7813 Q515.25,126.4063 515.5,126.1719 Q515.7656,125.9375 516.3906,125.9375 L524.0156,125.9375 L524.0156,128.5313 Q524.0156,129.1406 523.7813,129.4063 Q523.5625,129.6563 523.1719,129.6563 Q522.7969,129.6563 522.5625,129.4063 Q522.3281,129.1406 522.3281,128.5313 L522.3281,127.6406 L518.3594,127.6406 L518.3594,130.0938 L519.8438,130.0938 Q519.8438,129.4375 519.9688,129.25 Q520.2344,128.8438 520.7031,128.8438 Q521.0781,128.8438 521.3125,129.1094 Q521.5469,129.3594 521.5469,129.9688 L521.5469,131.9375 Q521.5469,132.4844 521.4219,132.6719 Q521.1563,133.0625 520.7031,133.0625 Q520.2344,133.0625 519.9688,132.6563 Q519.8438,132.4688 519.8438,131.7969 L518.3594,131.7969 Z " fill="#000000"/><text fill="#000000" font-family="sans-serif" font-size="14" lengthAdjust="spacing" textLength="107.3789" x="533.5" y="136.7285">ActividadSistema</text><line style="stroke:#181818;stroke-width:0.5;" x1="505.5" x2="642.8789" y1="147" y2="147"/><line style="stroke:#181818;stroke-width:0.5;" x1="505.5" x2="642.8789" y1="155" y2="155"/></g><!--link Clientes to Cotizaciones--><g class="link" data-entity-1="ent0001" data-entity-2="ent0002" data-link-type="crowfoot" data-source-line="12" id="lnk10"><path codeLine="12" d="M63,63 C63,80.66 63,78.94 63,96.68" fill="none" id="Clientes-Cotizaciones" style="stroke:#181818;stroke-width:1;"/><line style="stroke:#181818;stroke-width:1;" x1="59" x2="67" y1="59" y2="59"/><line style="stroke:#181818;stroke-width:1;" x1="59" x2="67" y1="62" y2="62"/><line style="stroke:#181818;stroke-width:1;" x1="63" x2="63" y1="63" y2="55"/><line style="stroke:#181818;stroke-width:1;" x1="63" x2="69" y1="106.68" y2="114.68"/><line style="stroke:#181818;stroke-width:1;" x1="63" x2="57" y1="106.68" y2="114.68"/><line style="stroke:#181818;stroke-width:1;" x1="63" x2="63" y1="106.68" y2="114.68"/><ellipse cx="63" cy="100.68" fill="none" rx="4" ry="4" style="stroke:#181818;stroke-width:1;"/></g><!--link Proveedor to Vehiculos--><g class="link" data-entity-1="ent0005" data-entity-2="ent0003" data-link-type="crowfoot" data-source-line="13" id="lnk11"><path codeLine="13" d="M201,63 C201,80.66 201,78.94 201,96.68" fill="none" id="Proveedor-Vehiculos" style="stroke:#181818;stroke-width:1;"/><line style="stroke:#181818;stroke-width:1;" x1="197" x2="205" y1="59" y2="59"/><line style="stroke:#181818;stroke-width:1;" x1="197" x2="205" y1="62" y2="62"/><line style="stroke:#181818;stroke-width:1;" x1="201" x2="201" y1="63" y2="55"/><line style="stroke:#181818;stroke-width:1;" x1="201" x2="207" y1="106.68" y2="114.68"/><line style="stroke:#181818;stroke-width:1;" x1="201" x2="195" y1="106.68" y2="114.68"/><line style="stroke:#181818;stroke-width:1;" x1="201" x2="201" y1="106.68" y2="114.68"/><ellipse cx="201" cy="100.68" fill="none" rx="4" ry="4" style="stroke:#181818;stroke-width:1;"/></g><!--link Vehiculos to Conductores--><g class="link" data-entity-1="ent0003" data-entity-2="ent0004" data-link-type="crowfoot" data-source-line="14" id="lnk12"><path codeLine="14" d="M201,171 C201,188.66 201,186.94 201,204.68" fill="none" id="Vehiculos-Conductores" style="stroke:#181818;stroke-width:1;"/><line style="stroke:#181818;stroke-width:1;" x1="197" x2="205" y1="167" y2="167"/><line style="stroke:#181818;stroke-width:1;" x1="197" x2="205" y1="170" y2="170"/><line style="stroke:#181818;stroke-width:1;" x1="201" x2="201" y1="171" y2="163"/><line style="stroke:#181818;stroke-width:1;" x1="201" x2="207" y1="214.68" y2="222.68"/><line style="stroke:#181818;stroke-width:1;" x1="201" x2="195" y1="214.68" y2="222.68"/><line style="stroke:#181818;stroke-width:1;" x1="201" x2="201" y1="214.68" y2="222.68"/><ellipse cx="201" cy="208.68" fill="none" rx="4" ry="4" style="stroke:#181818;stroke-width:1;"/></g><!--link ApplicationUser to LogSistema--><g class="link" data-entity-1="ent0007" data-entity-2="ent0008" data-link-type="crowfoot" data-source-line="15" id="lnk13"><path codeLine="15" d="M473.0798,61.4148 C459.9198,79.0748 457.3557,82.5069 444.1357,100.2469" fill="none" id="ApplicationUser-LogSistema" style="stroke:#181818;stroke-width:1;"/><line style="stroke:#181818;stroke-width:1;" x1="472.2625" x2="478.6773" y1="55.8173" y2="60.5975"/><line style="stroke:#181818;stroke-width:1;" x1="470.4699" x2="476.8847" y1="58.2228" y2="63.003"/><line style="stroke:#181818;stroke-width:1;" x1="473.0798" x2="477.86" y1="61.4148" y2="55"/><line style="stroke:#181818;stroke-width:1;" x1="438.1603" x2="438.191" y1="108.2653" y2="118.2652"/><line style="stroke:#181818;stroke-width:1;" x1="438.1603" x2="428.569" y1="108.2653" y2="111.0948"/><line style="stroke:#181818;stroke-width:1;" x1="438.1603" x2="433.38" y1="108.2653" y2="114.68"/><ellipse cx="441.7455" cy="103.4542" fill="none" rx="4" ry="4" style="stroke:#181818;stroke-width:1;"/></g><!--link ApplicationUser to ActividadSistema--><g class="link" data-entity-1="ent0007" data-entity-2="ent0009" data-link-type="crowfoot" data-source-line="16" id="lnk14"><path codeLine="16" d="M516.9202,61.4148 C530.0802,79.0748 532.6443,82.5069 545.8643,100.2469" fill="none" id="ApplicationUser-ActividadSistema" style="stroke:#181818;stroke-width:1;"/><line style="stroke:#181818;stroke-width:1;" x1="511.3227" x2="517.7375" y1="60.5975" y2="55.8173"/><line style="stroke:#181818;stroke-width:1;" x1="513.1153" x2="519.5301" y1="63.003" y2="58.2228"/><line style="stroke:#181818;stroke-width:1;" x1="516.9202" x2="512.14" y1="61.4148" y2="55"/><line style="stroke:#181818;stroke-width:1;" x1="551.8397" x2="561.431" y1="108.2653" y2="111.0948"/><line style="stroke:#181818;stroke-width:1;" x1="551.8397" x2="551.809" y1="108.2653" y2="118.2652"/><line style="stroke:#181818;stroke-width:1;" x1="551.8397" x2="556.62" y1="108.2653" y2="114.68"/><ellipse cx="548.2545" cy="103.4542" fill="none" rx="4" ry="4" style="stroke:#181818;stroke-width:1;"/></g><?plantuml-src TOun3i8m34Ntdg8Nw24GAmDIWJrAli1IYAF4ZLJeuSk0am9Yix-VxOSW97E_zuGWo1tUFGizZ2KEBRlWHdRol862cwnmQimnSG4S9mrESyI8LCX2ersCdgoHr_5pHYKFV1qf2-wcWbQea3DEyqur-sKP1dv-QjRVEct2jMgBJVtBHv6Dpn_Ynsy5?></g></svg>